<svg xmlns="http://www.w3.org/2000/svg" xmlns:xlink="http://www.w3.org/1999/xlink" xml:space="preserve" viewBox="0 0 530.5 563.1">
  <path fill="#31c6ff" d="M0 0h530.7v563.2H0z"/>
  <g fill="#70d0ff">
    <path d="m-.3 0 4 56.1L266 283.2ZM0 104.6l.4 43.7L233 255.1Z"/>
    <path d="M91.5-1.3 52-1.2 265 284.6ZM164.3.2h-34.7l87 155.1ZM224.5 0l-29.7.5 70.2 279Z"/>
    <path d="m1.6 180.2-.4 39.7 262.4 61ZM1.1 237.4-1 273.1l230.2 7.4ZM-1.2 563.2l3.8-51.4L252.3 304ZM-1 458.6l.4-43.8 263.8-133.2Z"/>
    <path d="M90.4 564.4H50.9L263.2 285ZM163.3 563l-34.7-.1L228 360.3ZM223.6 563.1l-29.8-.4 70.2-279zM.6 383l-.4-39.7 200.9-32.5ZM.5 325.7-2 289.2l265.8-7.6zM288.3-1.8l-42.9.8L270 158.8ZM530-.2l.5 55.6-266.8 227.7zM531.7 104.4l-.3 43.8-202.8 96.2z"/>
    <path d="M440.2 0 479-.3 266.6 284.4ZM367.4 0l34.8.1-135.5 281.6ZM307.2-.1l29.8.4-70.3 279z"/>
    <path d="m530.1 180 .4 39.7-262.3 61zM530.8 237.3l.7 33-207.7 6.9zM287 560.8l-42.2 4.2 19.5-283.5zM529.4 564.2l.4-55.6-227.2-181.7ZM531 459.6l-.2-40.4L287.2 296ZM439.6 565.4h39.6L266 279.5zM366.8 564l34.8-.1L266 282.3ZM303.3 564.1l35-.4L289.2 380zM531 374l.4-39.7-219.3-54z"/>
  </g>
  <g fill="#a8deff">
    <path d="M531.4 301.6v9.9l-266.9-26zM511.2-.2h19.4L312 231.3ZM383-.1l11.5-.1-129.3 280.5ZM531.9 192.6l-1.4 12.4-203 62zM531.7 129.3l-.8 10.8-108.6 54zM305.6-.9l8.3-.4-17.6 98.8Z"/>
    <path d="M529.8 263v-9.8l-266.9 26zM509.6 564.8l19.4.1-218.5-231.7zM381.4 564.8H393L263.6 284.5zM530.3 372l-1.4-12.4-203-62ZM530 435.3l-.7-10.8-108.6-54ZM304 565.5l8.3.4-17.6-98.7zM.3 301l-1.5-15.9 134-1.5ZM17 562.1l-19.4.1L216 330.5zM145.1 562.1h-11.5L263 281.8ZM-3.7 369.3l1.4-12.4 207.2-47.1zM-3.5 432.6l.7-10.8 108.7-54zM222.6 562.8l-8.4.4 17.7-98.7zM19 .6H-.2l218.5 231.6z"/>
    <path d="M147.2.7 135.7.6 265.1 281ZM-1.6 193.4l1.4 12.4L108 236.7zM-1.4 130.1l.8 10.8L108 195zM224.7 0l-8.4-.5L234 98.3z"/>
  </g>
  <g fill="#00aee1">
    <path d="m531 28.6.3 9.8L335 214.2zM530 84l.2 6.6-110.5 77.7zM531 228.5l-.3-11.5-263 66.2zM530.7 293.9l-.2-8.5-105.7 3.2zM422-.1l11.3-.4-163 269ZM533.4 535.6l.2-9.8L337.4 350zM532.4 480.2l.2-6.6L422 395.9z"/>
    <path d="m533.4 335.7-.3 11.5L270 281zM363.6 564l-4.6.9-18.9-64.6zM424.2 564.3l11.4.4-163-269zM274.7-.4l13.6-.5L272 180.8ZM-.5 28.4l-.2 9.9L195.5 214ZM.5 83.9l-.1 6.5 110.5 77.7ZM2.6 219.3-1.1 209l61 22.2zM0 293.8l.1-8.5 105.7 3.1zM108.7-.3 97.4-.6l162.9 269ZM158.3-1.2l-7-.4 23.1 49.4ZM272.8 566.5l13.7.5L270 385.3zM-2.3 537.7l-.2-9.9L193.7 352ZM-1.3 482.2l-.2-6.6L109.1 398zM-2.3 337.8l.3 11.4L261.1 283zM-2.9 400.3l2.2 4.5L156 336.6ZM106.9 566.4l-11.4.3 163-269ZM156.5 567.3l-7 .4 23-49.5z"/>
  </g>
  <path d="M423.2 498a3 3 0 1 1-4.2-4.3 3 3 0 0 1 4.2 4.2zm18-17.8a3.1 3.1 0 1 1-4.4-4.5 3.1 3.1 0 0 1 4.4 4.5zm17.7-18a3 3 0 1 1-4.1-4.2 3 3 0 0 1 4 4.2zm17.5-18.3a2.4 2.4 0 1 1-3.4-3.3 2.4 2.4 0 0 1 3.4 3.3zm17.3-18.4a1.6 1.6 0 1 1-2.3-2.3 1.6 1.6 0 0 1 2.3 2.3zm17.3-18.4a.8.8 0 1 1-1.2-1.1.8.8 0 0 1 1.2 1.1zm-97.3 67.2a4.8 4.8 0 1 1-6.8-6.8 4.8 4.8 0 0 1 6.8 6.8zm18-17.8a4.9 4.9 0 1 1-7-7 4.9 4.9 0 0 1 7 7zm17.6-18a4.7 4.7 0 1 1-6.6-6.6 4.7 4.7 0 0 1 6.6 6.5zm17.4-18.4a4 4 0 1 1-5.6-5.6 4 4 0 0 1 5.6 5.6zm17.3-18.4a3.1 3.1 0 1 1-4.5-4.5 3.1 3.1 0 0 1 4.5 4.5zm17-18.7a2 2 0 1 1-2.8-2.8 2 2 0 0 1 2.8 2.8zm-111 81.7a6.5 6.5 0 1 1-9.2-9.2 6.5 6.5 0 0 1 9.2 9.2zm18-17.7a6.7 6.7 0 1 1-9.5-9.5 6.7 6.7 0 0 1 9.5 9.5zm17.6-18.1a6.3 6.3 0 1 1-9-9 6.3 6.3 0 0 1 9 9zm17.3-18.5a5.5 5.5 0 1 1-7.8-7.8 5.5 5.5 0 0 1 7.8 7.8zM460 392a4.5 4.5 0 1 1-6.4-6.4 4.5 4.5 0 0 1 6.4 6.4zm14.8-24.3a3.2 3.2 0 1 0-.2 6.4 3.2 3.2 0 0 0 .2-6.4zM379 442.4a8.3 8.3 0 1 1-11.6-11.7 8.3 8.3 0 0 1 11.6 11.7zM400 422a8.5 8.5 0 1 1-12-12 8.5 8.5 0 0 1 12 12zm17.5-18.2a8 8 0 1 1-11.3-11.3 8 8 0 0 1 11.3 11.3zm17.1-18.6a7 7 0 1 1-9.8-9.9 7 7 0 0 1 9.8 10zm17-18.8a5.7 5.7 0 1 1-8-8 5.7 5.7 0 0 1 8 8zm-58.8 122.5a4.2 4.2 0 1 1-6-6 4.2 4.2 0 0 1 6 6zm-36-57.4a9.9 9.9 0 1 1-14-14 9.9 9.9 0 0 1 14 14zm19.5-19a10.3 10.3 0 1 1-14.5-14.6 10.3 10.3 0 0 1 14.5 14.6zm20.2-21.3a9.5 9.5 0 1 1-13.5-13.4 9.5 9.5 0 0 1 13.5 13.4zm16.8-18.8a8.1 8.1 0 1 1-11.4-11.5 8.1 8.1 0 0 1 11.4 11.5zm16.8-19a6.6 6.6 0 1 1-9.3-9.2 6.6 6.6 0 0 1 9.3 9.3zm16.7-19a5 5 0 1 1-7-7 5 5 0 0 1 7 7zm-98.6 71.5a11 11 0 1 1-15.6-15.6 11 11 0 0 1 15.6 15.6zm21.2-20.2a11.7 11.7 0 1 1-16.6-16.6 11.7 11.7 0 0 1 16.6 16.6zm21.1-23a10.4 10.4 0 1 1-14.7-14.7 10.4 10.4 0 0 1 14.7 14.7zm16.7-19a8.7 8.7 0 1 1-12.3-12.4 8.7 8.7 0 0 1 12.3 12.3zm16.7-19.1a7 7 0 1 1-10-10 7 7 0 0 1 10 10zM399 315a5.2 5.2 0 1 1-7.4-7.4 5.2 5.2 0 0 1 7.4 7.4zm69.4 33.8a3.2 3.2 0 1 1-4.6-4.6 3.2 3.2 0 0 1 4.6 4.6zm-.8-21.3a2 2 0 1 1-2.8-2.8 2 2 0 0 1 2.8 2.8zm-24.4-18.8a3.2 3.2 0 1 0-4.6 4.6 3.2 3.2 0 0 0 4.6-4.6zm19.6-2.9a3.2 3.2 0 1 1-4.5-4.5 3.2 3.2 0 0 1 4.5 4.5zm22.7 51.7a3.2 3.2 0 1 1-4.6-4.6 3.2 3.2 0 0 1 4.6 4.6zm22.8 1.8a2 2 0 1 1-2.8-2.8 2 2 0 0 1 2.8 2.8zm-21.8-26.8a2 2 0 1 0-.1 4 2 2 0 0 0 .1-4zm-.7-16.9a2 2 0 1 1-2.8-2.8 2 2 0 0 1 2.8 2.8zm-44.5-24.4a3.2 3.2 0 1 1-4.6-4.6 3.2 3.2 0 0 1 4.6 4.6zm37.3-2.3a.8.8 0 1 1-1.2-1.2.8.8 0 0 1 1.2 1.2zm-18.1-11.8a.8.8 0 1 1-1.1-1.1.8.8 0 0 1 1 1zm42 21a.8.8 0 1 1-1-1.1.8.8 0 0 1 1 1.1z"/>
  <path fill="#a8deff" fill-opacity=".5" d="M441 493.8a3 3 0 1 1-4.3-4.2 3 3 0 0 1 4.3 4.2zm18-17.7a3.1 3.1 0 1 1-4.5-4.5 3.1 3.1 0 0 1 4.4 4.5zm17.7-18a3 3 0 1 1-4.2-4.2 3 3 0 0 1 4.2 4.2zm17.4-18.3a2.4 2.4 0 1 1-3.3-3.3 2.4 2.4 0 0 1 3.3 3.3zm17.4-18.4a1.6 1.6 0 1 1-2.3-2.3 1.6 1.6 0 0 1 2.3 2.3zm17.2-18.4a.8.8 0 1 1-1.1-1.1.8.8 0 0 1 1.1 1.1zm-97.2 67.2a4.8 4.8 0 1 1-6.8-6.8 4.8 4.8 0 0 1 6.8 6.8zm18-17.8a4.9 4.9 0 1 1-7-7 4.9 4.9 0 0 1 7 7zm17.6-18a4.7 4.7 0 1 1-6.6-6.6 4.7 4.7 0 0 1 6.6 6.5zm17.4-18.4a4 4 0 1 1-5.7-5.6 4 4 0 0 1 5.7 5.6zm17.2-18.4a3.1 3.1 0 1 1-4.4-4.5 3.1 3.1 0 0 1 4.4 4.5zm17-18.7a2 2 0 1 1-2.7-2.8 2 2 0 0 1 2.8 2.8zm-111 81.7a6.5 6.5 0 1 1-9.2-9.2 6.5 6.5 0 0 1 9.3 9.2zm18-17.7a6.7 6.7 0 1 1-9.4-9.5 6.7 6.7 0 0 1 9.5 9.5zm17.7-18.1a6.3 6.3 0 1 1-9-9 6.3 6.3 0 0 1 9 9zm17.3-18.4a5.5 5.5 0 1 1-7.9-7.9 5.5 5.5 0 0 1 7.9 7.9zm17-18.6a4.5 4.5 0 1 1-6.3-6.4 4.5 4.5 0 0 1 6.4 6.4zm14.9-24.3a3.2 3.2 0 1 0-.3 6.4 3.2 3.2 0 0 0 .3-6.4zm-95.8 74.8a8.3 8.3 0 1 1-11.7-11.7 8.3 8.3 0 0 1 11.7 11.7zm20.9-20.5a8.5 8.5 0 1 1-12-12 8.5 8.5 0 0 1 12 12zm17.4-18.2a8 8 0 1 1-11.2-11.3 8 8 0 0 1 11.2 11.3zm17.2-18.6a7 7 0 1 1-9.9-9.9 7 7 0 0 1 9.9 10zm17-18.8a5.7 5.7 0 1 1-8.1-8 5.7 5.7 0 0 1 8 8zm-58.8 122.5a4.2 4.2 0 1 1-6-6 4.2 4.2 0 0 1 6 6zm-36-57.4a9.9 9.9 0 1 1-14-14 9.9 9.9 0 0 1 14 14zm19.5-19a10.3 10.3 0 1 1-14.5-14.6 10.3 10.3 0 0 1 14.5 14.6zm20.1-21.3a9.5 9.5 0 1 1-13.4-13.4 9.5 9.5 0 0 1 13.4 13.4zm17-18.8a8.1 8.1 0 1 1-11.6-11.5 8.1 8.1 0 0 1 11.5 11.5zm16.7-19a6.6 6.6 0 1 1-9.3-9.2 6.6 6.6 0 0 1 9.3 9.3zm16.7-19a5 5 0 1 1-7-7 5 5 0 0 1 7 7zm-98.6 71.5a11 11 0 1 1-15.6-15.6 11 11 0 0 1 15.6 15.6zm21.2-20.2a11.7 11.7 0 1 1-16.6-16.6 11.7 11.7 0 0 1 16.6 16.6zm21.1-23a10.4 10.4 0 1 1-14.7-14.7 10.4 10.4 0 0 1 14.7 14.7zm16.7-19a8.7 8.7 0 1 1-12.3-12.4 8.7 8.7 0 0 1 12.3 12.3zm16.6-19.1a7 7 0 1 1-9.9-10 7 7 0 0 1 10 10zM417 311a5.2 5.2 0 1 1-7.5-7.4 5.2 5.2 0 0 1 7.5 7.4zm69.4 33.8a3.2 3.2 0 1 1-4.6-4.6 3.2 3.2 0 0 1 4.6 4.6zm-.9-21.3a2 2 0 1 1-2.8-2.8 2 2 0 0 1 2.8 2.8zm-24.3-14.2a3.2 3.2 0 1 1-4.6-4.6 3.2 3.2 0 0 1 4.6 4.6zm19.6-7.5a3.2 3.2 0 1 1-4.6-4.5 3.2 3.2 0 0 1 4.6 4.5zm22.6 51.7a3.2 3.2 0 1 1-4.5-4.5 3.2 3.2 0 0 1 4.5 4.5zm22.9 1.8a2 2 0 1 1-2.8-2.8 2 2 0 0 1 2.8 2.8zm-21.8-26.8a2 2 0 1 0-.1 4 2 2 0 0 0 .1-4zm-.7-16.9a2 2 0 1 1-2.8-2.8 2 2 0 0 1 2.8 2.8z"/>
  <path d="M76.2 102.5a.8.8 0 1 0 1.6.4.8.8 0 0 0-1.6-.4zm1 19a1.5 1.5 0 1 0 2.9.8 1.5 1.5 0 0 0-3-.8zm1 19a2 2 0 1 0 4 1 2 2 0 0 0-4-1zM93.7 82a1 1 0 1 1 2-.1 1 1 0 0 1-2 .1zm.7 19.3a1.9 1.9 0 1 1 3.7-.3 1.9 1.9 0 0 1-3.7.3zm.8 19.2a2.7 2.7 0 1 1 5.3-.5 2.7 2.7 0 0 1-5.3.5zm1 19.2a3.3 3.3 0 1 1 6.5-.6 3.3 3.3 0 0 1-6.5.6zm15.2-78.4a.8.8 0 1 1 1.5-.2.8.8 0 0 1-1.5.2zm.6 19.2a1.8 1.8 0 1 1 3.6-.3 1.8 1.8 0 0 1-3.6.3zm.5 19.2a2.9 2.9 0 1 1 5.8-.4 2.9 2.9 0 0 1-5.8.4zm.7 19.3a3.8 3.8 0 1 1 7.6-.7 3.8 3.8 0 0 1-7.6.7zm1 19.2a4.5 4.5 0 1 1 9-.8 4.5 4.5 0 0 1-9 .8zm15.8-78.5a1.3 1.3 0 1 1 2.6-.2 1.3 1.3 0 0 1-2.6.2zm.4 19.3a2.5 2.5 0 1 1 5-.5 2.5 2.5 0 0 1-5 .5zm.5 19.2a3.7 3.7 0 1 1 7.3-.6 3.7 3.7 0 0 1-7.3.6zm.5 19.2a4.8 4.8 0 1 1 9.5-.8 4.8 4.8 0 0 1-9.5.8zm-22.3 66a5.7 5.7 0 1 1 11.3-1 5.7 5.7 0 0 1-11.3 1zM148.7 58a1.7 1.7 0 1 1 3.4-.3 1.7 1.7 0 0 1-3.4.3zm.3 19.3a3 3 0 1 1 6-.5 3 3 0 0 1-6 .5zm34.7-11.7a4.3 4.3 0 1 1 8.5-.7 4.3 4.3 0 0 1-8.5.7zm-16-9.2a2 2 0 1 1 3.7-.3 2 2 0 0 1-3.8.3zm.4 17.2a3.2 3.2 0 1 1 6.5-.5 3.2 3.2 0 0 1-6.5.5zm-73.2 87a4.6 4.6 0 1 1 9.1-.8 4.6 4.6 0 0 1-9 .8zm18.7-.1a7.2 7.2 0 1 1 14.4-1.2 7.2 7.2 0 0 1-14.4 1.2zm-17.8 43a2 2 0 1 1 4-.3 2 2 0 0 1-4 .3zm-17.7-43a1.5 1.5 0 1 0 2.9.8 1.5 1.5 0 0 0-3-.7zm-1 21a1.5 1.5 0 1 1 3-.3 1.5 1.5 0 0 1-3 .2zm-13.2-21a.8.8 0 1 1 1.6-.1.8.8 0 0 1-1.6.1zm.4-19.7a.8.8 0 1 1 1.7-.1.8.8 0 0 1-1.7.1zM94.6 184a3.3 3.3 0 1 1 6.5-.5 3.3 3.3 0 0 1-6.5.5zm-18 16.5a.8.8 0 1 1 1.6-.2.8.8 0 0 1-1.7.2zm53-155a.8.8 0 1 1 1.5-.1.8.8 0 0 1-1.5 0zm19.8-1.7a1.3 1.3 0 1 1 2.6-.2 1.3 1.3 0 0 1-2.6.2z"/>
  <path fill="#a8deff" fill-opacity=".5" d="M73 54.5zm1.3 19.2a.3.3 0 1 1 .7 0 .3.3 0 0 1-.7 0zm1.2 18.9a.8.8 0 1 0 1.6.4.8.8 0 0 0-1.6-.4zm1 19a1.5 1.5 0 1 0 2.8.7 1.5 1.5 0 0 0-2.9-.7zm1 19a2 2 0 1 0 4 1 2 2 0 0 0-4-1zM92 52.9a.3.3 0 1 1 .6 0 .3.3 0 0 1-.6 0zm1 19.2a1 1 0 1 1 1.9-.1 1 1 0 0 1-2 .1zm.6 19.2a1.9 1.9 0 1 1 3.8-.3 1.9 1.9 0 0 1-3.8.3zm.9 19.3a2.7 2.7 0 1 1 5.3-.5 2.7 2.7 0 0 1-5.3.5zm1 19.2a3.3 3.3 0 1 1 6.5-.6 3.3 3.3 0 0 1-6.5.6zm15.2-78.5a.8.8 0 1 1 1.5 0 .8.8 0 0 1-1.5 0zm.6 19.3a1.8 1.8 0 1 1 3.6-.3 1.8 1.8 0 0 1-3.6.3zm.5 19.2a2.9 2.9 0 1 1 5.7-.5 2.9 2.9 0 0 1-5.7.5zm.7 19.3a3.8 3.8 0 1 1 7.6-.7 3.8 3.8 0 0 1-7.6.7zm.9 19.2a4.5 4.5 0 1 1 9-.8 4.5 4.5 0 0 1-9 .8zm15.9-78.5a1.3 1.3 0 1 1 2.6-.2 1.3 1.3 0 0 1-2.6.2zm.4 19.2a2.5 2.5 0 1 1 5-.4 2.5 2.5 0 0 1-5 .4zm.4 19.3a3.7 3.7 0 1 1 7.4-.6 3.7 3.7 0 0 1-7.4.6zm.6 19.2a4.8 4.8 0 1 1 9.5-.8 4.8 4.8 0 0 1-9.5.8zm-22.3 66a5.7 5.7 0 1 1 11.3-1 5.7 5.7 0 0 1-11.3 1zm39.6-125.3a1.7 1.7 0 1 1 3.5-.3 1.7 1.7 0 0 1-3.5.3zm.4 19.3a3 3 0 1 1 6-.5 3 3 0 0 1-6 .5zm34.6-11.7a4.3 4.3 0 1 1 8.6-.7 4.3 4.3 0 0 1-8.6.7zm-16-9.2a2 2 0 1 1 3.8-.3 2 2 0 0 1-3.8.3zm.5 17.2a3.2 3.2 0 1 1 6.4-.6 3.2 3.2 0 0 1-6.4.6zm-73.2 87a4.6 4.6 0 1 1 9-.8 4.6 4.6 0 0 1-9 .8zm18.7-.1a7.2 7.2 0 1 1 14.3-1.2 7.2 7.2 0 0 1-14.3 1.2zm-17.8 43a2 2 0 1 1 4-.3 2 2 0 0 1-4 .3zm-17.8-43a1.5 1.5 0 1 0 3 .8 1.5 1.5 0 0 0-3-.8zm-.9 21a1.5 1.5 0 1 1 3-.3 1.5 1.5 0 0 1-3 .2zM61 150.4a.8.8 0 1 1 1.7-.1.8.8 0 0 1-1.7.1zm2.6-19.5a.8.8 0 1 1 1.6-.1.8.8 0 0 1-1.6 0zM93.9 174a3.3 3.3 0 1 1 6.5-.5 3.3 3.3 0 0 1-6.5.5zm-18.1 16.4a.8.8 0 1 1 1.6 0 .8.8 0 0 1-1.6 0z"/>
  <path fill="#ff0c72" d="m36.3 525.1-5.8-40.4L36 457l14.3-21.6 14.2-8.2 18.2-1.3 65.4-.4 12.7-2.6 7.8-6.8 13.9-2.3 190 19.9 6-1 15 11.1 13.8 10 6.8 3.7 15.3.8 5.6 4.3 30.2 3.4 18.7 13.6 15.4 32.2.2 18.4s-82.8 8-101.4 2.5c-18.5-5.5-76.2.6-76.2.6s-82-.5-101.3-3.6c-20-3.3-30-3.6-58.5 2-28.5 5.7-67.8-.1-88.7-7.2-10.8-3.7-20.2 2.3-37 .5z"/>
  <path fill="#da0060" d="M176.1 415.6s-4.1 12.7-6.6 16.9c-14.9 0-13.1 3.7-35 9.2-18.3 4.6-45-4.7-46.4 4.6-2.8 18.4-9.5 76.6-10.3 79-.7 2.3-14.1-1.2-36.5-.8-22.4.4-5.5-72.3-2.8-75.1 2.8-2.7 10.6-16.5 16.5-19.7 6-3.1 23.6-5.9 30-3.5 6.2 2.4 62.4 1.6 62.4 1.6s11.4-2.4 14.6-6.3c5.7-6.9 14.1-6 14.1-6zM373 431.7c.6 4.3 2.8 5.9 2.8 5.9s10.1 2.5 13 7c2.3 3.2 6 3.3 9.8 6 3.8 2.5 7.7 7.6 11.7 8.6 13.2 3.4 8.8 8.9 8.2 12.6-.8 5 .3 4.7 5.6-1.7 6.8-8.1 4.6-6.6 8.1-5.7 3.7.9 17.6 2.5 21.9 3.5 9 2 12.3 2.8 26.1 16 7.7 7.3 12.6 31.1 12.4 39.6-.2 8.4 5.9 6.3 5.9 6.3l2-4.1-3.2-24-7.5-15.3-10.6-12.4-15-8-28.9-4.4-8.8-3.7-10.3-1.7-9.9-3.2-11.6-7-6.3-6.8-11-7.1z"/>
  <path fill="#ffe1c2" d="m254.7 116.2 48.7-3.9 48 31.5 8.9 48.6 16.5 55.8-16.5 52-19.4 24.8-7.7 58 1.1 18.3 8 12 11 11.7 16 8.8 11.4 22.6 2.6 23-8.6 20.4-14 12.5-24.9 13.9s-2.1 4-17.8 6.8c-15.6 2.7-76.3 8.4-98-4.5-21.7-12.9-35.4-31-35.4-31l-13.2-27-2.2-26.8 3.7-20 6.9-9 27.1-14.7 13.9-12.7-15.3-31.3-12.3-25.2-11.7-37.3-12.1-31.8-3-54.1 16.3-54.9 18.7-31.6 35.8-11.2zM105 330.3l18.8 39.7 12.7 10.3L141 404l10.3 58 10 55.3 1 14.9s-69 13-88.4-8.3c7.2-17.7 6.7-38.7 6.7-38.7l5.5-74.5 8-47.8 6-29.6z"/>
  <path fill="#f1c89d" d="m103.8 329.5 7 13.4s-9.8 92.7-10.5 119.9c-.8 27.1-3.2 62.3-3.6 70.3-3.9 3.6-23-7.4-23-7.4s7.7-46 8.5-59c.8-13 6.3-60.5 6.7-66.4.4-6 7.4-55.9 9.4-60.6 2-4.7 5.5-10.2 5.5-10.2zM255.8 248.3c1.5 18.5.2 13.4 1.5 19.7 1.4 6.2-3.1 25 7.9 20.4 11-4.5 10.6-.8 9 1.4-1.5 2.1-5.7 9.2-5.7 9.2l-5.9.8-7-6.7-5.3 4-5.2-4.4.6-7.6 2.4-5.6s4.1-4.9 5.9-17.4c1.8-12.6 1.8-13.8 1.8-13.8zM247 123.9c-10.5-5.3-33.7 3.5-44.7 24-11 20.4-14.6 25.9-18.4 42.8-3.6 16.2-9.8 55.8-9.8 55.8s11 51.5 15.3 61.8a877.1 877.1 0 0 1 14.6 41.6l-17 .8-41.6-94 15-95.9 33-43.6 47.1-17s13.3 27 6.5 23.7zm8.3 240.8c-1.8 1.2-8.6 8.3-3.5 5.8a34.5 34.5 0 0 1 15.1-4c3.8.2 6.5-1 8.2-1 1.8 0-.6-2.6-4.3-2.6-3.7 0-15.5 1.8-15.5 1.8zm5.3-56s-4.3 6.4-1.6 9.2c2.8 2.7 4.7 3.1 5.3 2.5.6-.5-2.2.2-2.3-4.3-.2-4.5-1.4-7.5-1.4-7.5zM187.5 410l-12.1 6.3s0 11 8.6 19.2c8.7 8.3.8 13 14.2 20 13.3 7.2-7.5 18.2 19.6 20.5 27.1 2.4 25.6 11 35.8 10.7 10.2-.4 25.2-1.6 27.5-6.3 2.4-4.8 6.7 1.5 16.5-3.2 9.9-4.7 29.1-16.5 29.1-19.6 0-3.2 22-13 19.3-21.3-2.8-8.2-54.3 25.2-54.3 25.2l-38.9-2-37.3-11-19.3-20.4zM333 338.9l1.2 18.9-2.4 15.7s-29 30.7-37 36.2c-7.8 5.5-23.5 16.9-40.4 10.2-17-6.7-20-16.5-33.8-11.4-13.8 5.1-31 6.7-28.3 2.4 2.7-4.4 27-22.8 27-22.8l20.1.4 13.8 7.8 31-4.7s18.5-5.9 27.6-20c9-14.2 21.2-32.7 21.2-32.7zm-86.5-232.3s-7.8 20.7 16.7 17.4c26.9-3.5 49.8 21 58.1 28.1 9.5 8.1 7.6 35 14.3 41 6.7 5.8 18.7 5.8 21.8 7 3.1 1.2-8.3-6.7-9-21.2-.8-14.6-3.2-50.3-14.6-51.5-11.4-1.2-87.3-20.8-87.3-20.8z"/>
  <path d="M345.3 158c-.2 0-.4 0-.5.2-.3.4 4 22.7 2.7 37.7-2.6 30.6-4.5 82.8-4.8 84.1-6 31-2.2 37.8-12.1 58.8a134 134 0 0 1-21.8 34.4c-8.7 10.9-14 11.8-25.5 16.9a48.9 48.9 0 0 1-36.5-1.4 103.4 103.4 0 0 1-36.4-29.2c-6.3-9-3.2-6-8.4-15-7.8-13.2-21-49.5-24.9-73.6-3.7 3.4-2.4 0 4.2 27.5s8.5 27.5 11.5 36.1c4.5 12.8 11.2 23.3 15.9 32 4.6 8.8 7.2 15.7 3.4 21.4-1.1 4.9-24.5 23.6-38 25.6-11 1.6-9.3 4.3-14.6 7.1-5.3 2.8-10 3-13.8 2.8-3.6-10-1.5-23-9.7-43.6-1.6-3.9 10 60.1 10.3 62a992.9 992.9 0 0 0 5 31.2c3.4 19.6 6.7 42.3 9.6 59 .3 1.4 4 1.7 6.1-5.2-2-15.9-20.9-76.6-17.8-95.7 3-4 1.6-4.3 8.3-6.4 7-2.2 10-10.3 15.3-7 2.6 1.7 1 4.4-.8 7.3-3 5-4.4 11-4.4 21.8 0 13.8 4.4 43.3 23 59.7 29 25.4 19.1 18 29.9 23.8 13-5.5-26.2-16.6-42.8-47.2-7.2-13.3-8.4-33.7-7-35 12 1.1 31.9 3 47.9 8.1 8.1 2.7 17.4 7.7 24.3 8.8 6.9 1-21-11-38.1-15.5a215 215 0 0 0-20.8-3.3c-5.6-.6-10.8-1-13.2-1.4-2-.2-1.5-3.2.3-11.5 3.7-8.6 3.9-12.5 7.7-16.3 6.9-5 24.1-11.2 33.8-17.2 11.2-6.9 13.5-11 25-6.9 14.3 10 36 6 48.7 0a77.3 77.3 0 0 0 29.7-23.8c14.2-20.5 7.9-14 17.8-29.3-.3 19-9.3 51.2.7 67.5 5.9 9.6 23.4 21.3 34 29.4 5.3 5.3 6 12.3 9.1 19.2 6.3 13.5.3 10.6-7.3 9.6a781.9 781.9 0 0 0-26.8-3.2c-13.1-1.3-29.2-.2-38 2.7-9.2 3-16-.8-15.7 1.9.3 2.3 23.1-2 32.4-2.3a353 353 0 0 1 58 5c1.4.3 0 19.5-10.3 31.3-13.8 16-41.5 25.5-52.2 29.2-2.4 10.7 25-4.2 46.5-19 26.5-18.5 22-45.2 19.7-50-4.7-11.3-.9-7.6-7.6-23.7-5.2-8.6 11.5 1.7 12.5 3 6.3 9 7.5 5 13.4 10.8 5 4.9 9.2 7.1 18.7 6.6 12.3-.6-2 4.8 23 6.5 12.8.8 24 2.3 35 13.7 11.1 11.3 18.3 25 18.8 49 .2 1.3.5 2.7.7 3 .4.8 4.3 1 4.9.3.3-.4.1-3-.6-8a167 167 0 0 1-.7-5.3c-.8-7.3-4.4-13.3-6.2-20.3 0-.9-6.4-10.7-8.5-13.8a47.6 47.6 0 0 0-21.6-16.5c-9.6-4.2-10-3.3-19.3-3.9-15.7-1-14.6-5-20.8-6.5-4.8-1.2-12 .2-16.7-2.5-2-1.1-10.7-8.3-12.2-8.4-1.8-.2-2.6-2.4-4.5-4.6a38 38 0 0 0-17.9-9.8c-5.6-1.5-13.2 1.6-25.1-11.7-15.4-17-18-24.3-13.6-63.8 3-26.1 8-53.2 8.6-58 5.7 0 8.9-2.4 10.6-4.1 5-5 9.9-16.2 7.4-20.1-3.4-5.5-1-13.4-1-17l-2.3 4.3c.6 2.1.2 8.7.8 10.4 2 5.2 3.2 4-1 12.4-3.9 8.1-2.4 6.6-5.6 9.3-6.6 5.6-12.6 4.5-8.5-8.9 3.2-10.7 4.9-86.1 5.3-87.7.6-1.9-1.9-33.5-1.9-33.5s-1.5-4.4-2.7-4.4zm8.5 113c-.4.1-1 .5-2 1.3-.6 2.6-.3 6.9-2.5 9.6-1.7 1.8-1.6 2.6.2 2 1.7-.5 7.5-13.6 4.3-12.9zm-253.7 62.8c-2.6.7-9 42.7-16.3 90.7-2.8 1.4-14.3-1-24.4 2.5-8 3.5-12.7 10.7-18.3 16.7-4.4 5.1-6.5 10.4-9 16.3-2.3 8.2-4.6 25-2.4 43 .8 6.7 4.5 21.4 5.6 22.3 1.1.5 2.2.2 3.4 0 1.2 0 1.3-1 .5-3.8-1-3.2-3.5-13.3-4.2-17a106.3 106.3 0 0 1-1-33C34 462 45.3 444 52.9 437c7.5-7 13.4-7.8 21-9.5 7.3-1 10.8 2.4 10.3 4.6-.3 1.4-2.3 24.3-3.2 36.3-1.3 17-1.5 32.5-7.2 49.1-1.7 7.1-2.2 8 .4 8.2 7.4-9.3 9.2-48.2 9.7-58 .5-12 .8-17.6 1.4-24.7l.7-9c7.8-76.5 16-100.6 14.1-100.2Zm208.3 62.6c-.3.3-1 2.2-1.7 5.3a189 189 0 0 1-6.4 18.7c-1.3 3.3-7 14.5-8 15.8-1.6 3-3.1 5.9-5 9-2 3.4-2 3.8-1.6 4.4.4.5.8.1 3.5-3.7 7.2-10 14.8-27.3 17.8-40.4 1.4-6 1.7-8 1.6-9 0-.2 0-.3-.2-.1zm-88.3 4.4c-.4.7-.2 10.4.4 13.3a36.5 36.5 0 0 0 8.3 18c2.8 3 2.2.1-1.6-8.3a71 71 0 0 1-5.7-20.3c-.3-1.4-.2-3-1.4-2.7zm57 72.2c-.4-.3-10.6 9.9-14.2 7.5-7.1-4.7-7.2-5.8-7.8-5-.4.7 3.1 5.4 6 6.6 3.7 1.7 3 2 8-.9 4-3 11.7-6.3 8-8.2z" filter="url(#filter6956)"/>
  <path stroke="#000" d="M261.7 308.5c0 3.6-.7 7.8 1.8 10.7 1.3 1 2.6 1.4.3.7-3.1-1.3-3-5.2-2.6-8l.5-3.4zm-13-29a22.8 22.8 0 0 0-4 10.3c0 3.2 1.3 6.8 4.3 8.3 3.2.7 5.3-5.7 8.3-2.3 2.1 1.9 3.9 5 7.2 4.7 3.4.5 6.3-1.7 8.3-4.3 2-2.5 5-2.4 7.3-.4 3.9 1.3 6.8-3.3 4.9-6.6-.5-2.3-2.7-6.6-3-7.5 1.2 3.6 3.4 7.2 2.9 11.1-1.6 4.2-6.4 1.7-7.6-1.4-2.8-2.7-4.8 2.5-6.3 4.2-1.8 2.7-5.3 5.3-8.6 3.6-3.2-1.9-4.7-5.5-6.4-8.6-2.8-.1-3.3 4.1-5.5 5.6-3 1.6-5.3-3.3-5.4-6 0-3.8 2-7.3 3.5-10.7zm6.3-32.3c-2.1 2.4-2.3 4.8-1.6 7.8.2 1.9-.3 6.3.2 6.6.7-4.2 1.6-8.3 1.6-12.5l-.2-2zm16.7.3c.2 4 .6 8 2.2 11.5.6 1-.1-3.3-.3-4.4-.3-2.6 0-5-1.9-7z"/>
  <path fill="#fff" d="M264 284.8s-5.6-1-4 1.4c1.7 2.4 5.5 2.3 6.7 1.5 1.1-.7.5-2.7-2.7-3z"/>
  <path fill="#ffd900" d="M206 55.5s-34 15-39.1 20.5c-5.1 5.4-30.4 23-39.8 63.2-9.4 40.2-20 90.9-23.5 99.3-3.5 8-16.4 35.5-15.6 53.9.7 18.3 20.2 53.5 23.2 65.3 3.3 13.2 19 20 24.4 23.7 3.4 2.4 26.2 10.6 39 4 13-6.7 22.6-23.9 25.7-27.8 3.1-4 1.9-3-1-9.6-3.5-8.2-7.8-17-10.9-25.4-3-8.5-5.8-20.2-8-28.9-2.3-8.2-5.2-19-6.2-24.2a199 199 0 0 1-.6-49.7c2.2-17.4 6.2-27.8 6.2-31.7 0-4 7-32 13.2-41.8 6.3-9.8 18-24.1 25.3-25.9 8.7-2 15-6.2 22-.7s20 5 23 3.1c3.2-2 28.1-3.7 36.6 3.6 14.7 12.4 23 4.4 30.2 13 7.3 9 16.7 15.1 18 30.7 1 12 1.2 17.3 1.4 26.2.2 7.2 15.5 32.3 11.9 58.2-2 13.8 3.2 17.6.9 24.5-1.1 3.2-3.2 8-8 14-4.4 3.7-5.4 4-10 4-1.8 8.3-2.2 12.5-3.5 19.5-.9 5-1.4 11.1-2.8 20-1.4 9-2 14.8-2.8 20.9-7.9 19-13 24.6-3.9 30.8 8.9 4.1 19.2 5 27.9 5.7 15.5 1.2 27.5-7.7 34.2-13.1 6.6-5.5 44.5-45.8 45.7-62.3 2.1-29-9.6-55.8-18.7-77.7-2.1-5-32.8-67.6-35.6-73.8-2.7-6.3-9-27.4-16.4-24.6-7.4 2.7 12.2-5.8 15.3-18.8 2.8-12.2 3.2-13.1 2-22.4-1.6-11 .3-8.9-11.4-30.7-11.5-21.4-51-35.4-74-33-23.1 2.3-61.6 3.2-94.4 18z"/>
  <path fill="#ddbd00" d="m264 122.2-7.8-10.4-13.6-5.7-15.9 6c-.8.2-15.4 11.3-15.4 11.3l5.6-1.9s6.4-4.6 13.5-3.9c11.7 1 13.3 5.2 16.3 5.6 2 .2 12.2 1.6 14.4.5 2.3-1 2.9-1.5 2.9-1.5zm84.7 40.6s39 52.3 38.2 74.7c-.8 22.4 4 31 1.6 43.2-2.4 12.2-15 46.4-22.5 55.5-7.4 9-17.3 23.6-24.3 29.5-7.1 5.9 12.2-8 20.4-42.5 8.3-34.6 17-46 12.6-67.6-4.3-21.7-6.3-51.5-13.8-63.7a157.8 157.8 0 0 1-13.3-25.5c-1.7-7.6 1.1-3.6 1.1-3.6zm-6-42.7c9.4-9.4 12.2-6.5 15.5-11.8 2.3-3.7-3.4 13.3-11.8 18-8.2 4.4 2.5 1.2 13-5.2 9.9-6-14.6 15.7-.8 9.8 13.7-5.9 24.4-20.3 17.3-6.2-5.6 11.2-22 18.8-28.7 17.6-6.7-1.1-35.5-9-35.5-9L307 131c10-1.1 27-2.9 35.6-11zM110.4 227c2-8.3-3.2 19.6-1.2 33.4 2 13.7.1 23.4 1.3 34 .7 6.8-1.2 11.2-4-16-2.4-24.4-1.3-29.3-.6-36.6 1.4-15 3.9-22.1 3.9-22.1zm60.1-153.4S156.5 94.4 157 101c.4 6.7-.8 29.1-4.3 32.3-3.6 3.1-13.4 16.1-13.4 16.1s-12.6 9.4 1.6-11.8c14.1-21.2 9.4-22.8 11.8-33 2.3-10.2 2.3-22.8 18-31zM288 116.4s9.7-32.7-2.5-31.9c-12.1.8-31-3.9-36.5-.8-5.5 3.2-34.6 18.1-37.8 21.7-3.1 3.5-11.8 11.8-12.5 13.3-.8 1.6 7.8-2.4 32.2-18 9.9-6.4 27.2-11.8 34.8-7.5 8.7 4.8 3.7 8.6 3.7 22 0 6.7 6.7 8.2 8.5 3.6 1.7-4.4 10.1-2.4 10.1-2.4zm-111 158 7.9 37 17.3 42s-11.4 19-15 21.7c-3.5 2.7-10.6 10.2-23.1 10.2-12.6 0-33.9-6.7-40.1-10.2-6.3-3.5-14.6-14.6-14.2-17.3.4-2.8 18.5 11 26.3 9 7.9-2 14.2-1.5 19.3-13 5.1-11.3 14.2-39.7 13.8-49-.4-9.5.4-29.6-.8-35.5-1.2-5.9 0-11.8 0-11.8zm12.6-147s-22.4 31.8-24 42.8c-1.5 11-15.3 72.4-22 82.6-6.7 10.2-13 50.3-23.2 57-10.2 6.7-22.8 7.9-24.4 6-1.5-2 0 4.2 0 4.2s5.1 6.7 13 6.7 22 .4 23.6-11c1.6-11.4 16.1-57.4 16.1-57.4l23.6-83.7s.4-15.8 8.7-30.3a94 94 0 0 0 8.6-17z"/>
  <path fill="#fff0be" d="M353 335c2.4-3.6-5.1 17.1-9 20.8-4 3.8-6.9 10.4-8.7 10.9-2.2.6 8-15 10.7-19 2.3-3.5 4.3-8.5 7-12.7zm6.2 27s13.2-5.7 20.7-13.7c7.5-8.1 17.3-20 21-23.5 3.3-3.2-9.8 10.9-13.3 16.9-5.4 9-11.3 12-26.3 21.8-5.6 3.7-2.1-1.6-2.1-1.6zM150 155.6c5.7-8.3 2 5.7-5.5 11.8-7.5 6.1-11.4 11-15.2 14.2-3.6 3-21.6 20.4.2-3.6 8-8.9 12-10 20.5-22.4zm108-46.5s-9.2-9.6-15-8.5c-5.2 1-18 7.4-18 7.4s11-9.8 17.2-11c8.6-1.5 14.2 0 16.7 6.1s-.9 6-.9 6zm105.7 58.3s13.8 11.4 22.8 23.2c9 11.8 11.4 11 1.6-2.4-9.9-13.3-18.1-27.9-24-27.5-6 .4-.4 6.7-.4 6.7zm-167.5-37s-8.7 15.4-11.8 23.6c-3.1 8.3-8.3 24.8-8.6 29.5-.4 4.7-5.2 21.6-4.8 14.2.4-7.5.8-24.4 4.8-31.5 3.9-7 6.6-28.7 11.7-31.8 5.2-3.2 8.7-4 8.7-4zm136.5-18c-9.8 7.4-10 4-1.9-4.7 9.5-10.2 3.6-33.2 6.7-26.5 4.6 14 1.3 26.5-4.8 31.1zm48.8-12.6c-1.6 12.6-5.6 19.6-8.4 20.4-2.7.8 1.5-.3 3-16.4 1.7-16.1-3.3-22.4-7.6-27.9-4.4-5.5-19.8-13.5-11.5-12.7 13.8 2.4 24.1 25 24.5 36.6zM139.2 204.3c1.5 1.6-11.8 16.3-13.8 28-2 11.9-3.2 25.3-2.4 34 .7 8.2-2.7 9-2.3 3 .4-5.9-3.1-32.1 3.5-43.1 6.7-11 12.3-24.8 15-22zM274.2 45c-22.8-.7-25.9 2.8-53.8 11.3-26 7.9-38.8 13.1-49 27.7-10.6 14.9-16 23.7 6.4 3.2C191.6 74.6 198 65.6 228 57.4c11.6-3.1 34.1-7.7 53-5.5 47.7.5 5.4-6.6-6.7-7zm-108 221.3s-1.5 36-3.8 48.2c-2.4 12.4-7.4 35.3-11.8 40.1-6.5 7.2-18.4 10.7-27.5 4-8.2-6-13.8-12.2-13.8-12.2s10.6 13.8 22.4 9.8c11.8-4 15.3-14.5 18.9-22 3.5-7.5 9.4-31 11-39.7 1.6-8.7 4.6-28.2 4.6-28.2zM387.7 221s13.2 19.5 8.5 45c-4.7 25.6-2-3.7-2-16.2 0-12.6-6.5-28.8-6.5-28.8zm43 50c-2.1-5.5 9.1 25.7 8.2 34-.9 9.1-4.6 26-12.4 32-7.8 6.2-15.2 12.8-28.2 17.8-13.1 5-3.6-.5 6-5.6 29.3-15.4 26-38.1 27-41.7.7-3.6-4.2 8-12.2 12.4-5.1 3-3.5 1.6 4.5-7.5 17.3-19.8 7.2-41.3 7.2-41.3z"/>
  <path stroke="#000" stroke-linejoin="round" d="M131 311s-7.9-14-8.7-27.7c-.8-13.7 1.7 8.3 3.3 14a123 123 0 0 0 5.4 13.6zM295.7 61.2s-19 .5-30.5 5.7c0 0 21-5.9 30.5-5.7zm36.4 55s9.3-4.7 11.4-18.8c2.7-17.7-4.1-28.3-8.5-30.4 0 0 8.3 6.2 9.4 15a56 56 0 0 1-3.7 25.9c-2.2 3.2-3.1 5.2-8.6 8.2zm47.5 52.6c-6.2-3.5-11.5-15.2-13.1-21.3-.7-2.5-1.5-4-.7-3.6 0 0 4.8 18.6 13.8 24.9zm-244.2 19.4s-6.2 7-10.7 13.1a54.7 54.7 0 0 0-7.5 13.7s5-11.6 7.7-14.2c2.6-2.7 10.5-12.6 10.5-12.6zm25.2 178.4a26 26 0 0 1-13.8 10.1c-6.6 2.3-24.6-4.3-24.6-4.3s13.7 4.6 17.6 4.8c3.8.1 8-.8 11-2a41 41 0 0 0 9.8-8.6zm-43.7-26s8 3.4 16-4c8-7.5 8-9.2 11.6-14.7 0 0-7 10.6-10 13.5-2 2-9 8.3-17.6 5.3zm16.9-14.8a27.6 27.6 0 0 1-21.3 10.5c-9.7 0-13.5-7-13.5-7s4.3 5.6 10 6.5a27 27 0 0 0 14.1-1.8c5.7-2.7 10.7-8.2 10.7-8.2zm26.2-91.7s-5 30.3-7.5 37c-2.4 6.6-7.4 29.8-10.7 34.8 0 0 8.5-30.5 10.4-36.2 2-5.7 7.8-35.6 7.8-35.6zm220-118.6c-2.6 5.5-2.5 11.8-13 18.9-10.4 7-21.1 6.6-21.1 6.6s14.8-2.4 22.6-8a39.7 39.7 0 0 0 11.5-17.5zm28.5 177c6.8-12.8 3.2-38.2 3.6-36.3 0 0 1.4 21.7-3.6 36.2zM379 376s10.3-2.5 18.1-6.6c8-4.2 20-15.9 20-15.9s-7.4 6.3-15 11.2A88.2 88.2 0 0 1 379 376zM152 113.1s-.7 12.5-5.1 19.3a49.8 49.8 0 0 1-12.9 12.1s9-6.3 12.6-12.2a66.6 66.6 0 0 0 5.4-19.1zm200.5-1.9c-2.9 4.5-5.6 6.9-13.4 11.4-17.4 10.3-30.6 8.4-30.6 8.4s10.8 1.6 19.8-2c8.5-3.3 19-8.7 24.2-17.8zm2.6 187.6c4-4.9 6.4-9 7.6-13.5 1-3.7 1-7.2 1-7.2-.2.1-3.1 15.2-8.6 20.7zM190 322.5s-2.3 7.5-2 11.2l.8 9.2s-1-8.3-.3-12.5c.4-2.8 1.5-8 1.5-8zm0 26.3c2.2 13.7 6 28.5.7 30.3-2.5.9-4-2.7-3.5-3.3.4-.5-1.4 1.2 1.6 4 3 3 7.5-2.2 6.2-9.3a305 305 0 0 0-5-21.7zm-15-77.6s9 80.2-2.7 103.8c-2.5 5-20 29.4-44 13 21.5 14 35.7-8.6 40-15.1 9-14 8-42.3 8.2-52.8.3-10.5-1.2-50.6-1.2-50.6zm11.7 41.2s-2.9 28-2.2 34.7c1.4 15.5 4.7 37.8-1.5 41.4-6.2 3.5-16.8-1.9-16.8-1.9s15.4 8 17.4-5.7c2.1-13.7 0-31 .5-38.9.5-8.2 2.6-29.6 2.6-29.6zm15.5 42s-15 36.2-43 32.6c-16-2-26.7-1.8-61.2-32.4 24.7 17 44 31.3 64 29.3 10.1-1 22.6 3.3 40.2-29.5zm-33-92.7c-2.2 5.6-.5 46.8-4.1 63.9-4 19-11.8 43.5-29.2 40.7-17-2.7-30.8-15-30.8-15 14.7 14.9 36.5 20.4 42.6 18.2 15.9-5.8 19.6-17.2 21.5-28 2-10.6 2.5-25 2.8-48.5 0-7.3 1-20.7 1.2-25.3 0-4.6-1.8-11.6-4-6zm-4-91.3c-6.2 13.6-10.6 14.9-15.8 20.1-5.3 5.3-10.3 9.7 3.2-1.4 13.6-11 12.7-18.7 12.7-18.7zm153.3 204.3c7.5-1.9 8.9-5.1 12.2-9.7l17.1-24.8c1.6-2.4-9.2 15.4-12.7 22.4-.8 1.5-3 5.4-6.2 8-3.3 2.6-3.8 3.5-10.4 4zm11.3 3.3c.8.4 16 9.4 30 9.7a38 38 0 0 0 24-7.2s-12 4.5-21.1 4.7c-8.8.3-16.2-.5-32.9-7.2zm108.5-83s5.5 39.2-15.4 55.7c-15 12-44.8 18.3-53.4 19.1-16.2 1.6-28 .5-28 .5s22.4 3.1 40.5-2.3a133 133 0 0 0 41.4-19.8c8-6.3 10.2-14.9 12.7-26.8 1.8-8.2 2.2-26.4 2.2-26.4zm-36.5-69.4c-.8-1.6 6.2 13.5 7.2 29.7-.7 10.2-.7 23.7-14 46.5 0 0 6.6-14.7 8.6-22a93.5 93.5 0 0 0 3-25c-.4-9.3-4.8-29.2-4.8-29.2zM355 192.4c-2-3.8-7.1-15.1-7.1-15.1a115 115 0 0 1 13 22.7c-2.6-1.4-4.3-4.7-6-7.6zm8 87.3s2.8 8.9-5 20.4c-7.8 11.5-14 29-14 29s13.6-24.6 17.5-30.6c4.9-7.5 4-16.3 3.2-21.1-1-6.3-2.6-9.7-2.7-14.4-.6-15.2 1.3-15.7-2.2-5.2 0 0 1 13.8 1.7 14.4.7.5 1.6 7.5 1.6 7.5zm-46.3-146s45.8 11.8 53.6-29.5c2.3-12-9.2-23.3-9.2-23.3 18.3 17.8 8.6 41.3-8.6 50.2-16.6 8.9-35.8 2.6-35.8 2.6zM247 123.1s-6.4-10.7-14.5-8.1c-5.6 1.7-20.8 9.6-20.8 9.6s12.5-6.3 16.2-8c3.6-1.6 7.5-3.3 11-1.8 5.3 2.4 8.1 8.3 8 8.3zm9.4-.3s-7.3-17.8-28.8-10c0 0 7.5-3 16.6-1.4 9 1.8 11 10.5 12.2 11.4zm20.9-5c3.6-13.2 7.6-18.6 2-24.4-11.1-11.3-35.7-2.6-39.3-1a94 94 0 0 0-10.5 6.7s10.9-10 32.7-10.5c4.6 0 22.6-.2 17.9 17.4-5.5 20.4-2.8 11.9-2.8 11.9zm-72.7-61s-36.7 9-59.3 38.3c-22.7 29.3-27.2 87.3-35.4 116.3-6.8 24.3-27.1 70.3-21.1 88.2 7.4 22-2.7 6 22 55.1-25.5-53.8-26.3-59.9-13-98.5 12.7-36.7 18.7-67 25.6-99.4C129.1 131 145 92.2 164 79.4c36.4-24.6 40.8-22.6 40.8-22.6ZM413.3 359s-29 33-45.9 36.9c-16.8 3.8-39-9.3-39-9.3s24 9 38.4 5.3c23.8-6.4 34.3-20 46.5-32.9zm-109-323.6c-50.9 1.4-82.1 12.9-92.6 18.4-10.5 5.5 18.3-8 41.4-10.6 27-3.2 81-12 111.2 17.9a94.8 94.8 0 0 1 19.4 30.8c-8.6-39.3-46.2-56.9-79.4-56.5zm71.4 111.2c61.3 127 76.7 153 59.7 185.6-26 49.7-87.6 77.4-74.3 69 14.5-9 64-40.4 75-84.3 7.2-28.6-9.8-58.2-40.8-121.7-7.2-14.7-19.6-48.6-19.6-48.6zm-39-1c35 32 71.8 79.5 76 119.3 2.7 25.7 1.1 33.3-28.5 69-16.6 20-62.2 48.9-62.2 48.9s85.4-45 94.2-96.2c2-12-5.3-47-18-70.1-15.8-29.2-61.6-71-61.6-71zm-1.3-.1c50.8 66.8 54.1 110.7 47.8 141.7-6.3 30.5-32.3 64.3-48.9 83.1-11 12.5-15.5 11.8-15.5 11.8 34.1-9.2 64-68 68.8-94 1.7-9.2 10.8-52-18.7-97-17-25.8-33.5-45.6-33.5-45.6zm-48.5-28.8s8.5-34.2-20.3-33.4c-30 1-48.7 16.5-66.7 35-3.1 3.3 16.7-20.1 37.4-30.6a79.2 79.2 0 0 1 31.7-9c10-.5 21.4 1 21.1 14.9-.5 24.2-3.2 23.1-3.2 23.1zm-95 10.5s-13.8 18.4-20.6 41.8c-6.5 22.3-29.2 138.7-50 154.7-10 7.6-22.3 2-37.6-12.2 15.4 16.2 22.1 17.6 29.1 17.9 16 .7 19.8-11.2 25.8-29.2 4.5-13.2 25.2-94.3 33.7-126.8 6.3-24.1 2.9-12.6 19.7-46.2zm137.4 10.6c10.5 5.5 33.7 11 47 1 13.2-9.9 9.4-37.5 9.4-37.5s3.3 32.1-20.5 38.1c-21.3 5.4-35.9-1.6-35.9-1.6zm-28.6-11.2c14.6-17.7 55.4-72.5 2.6-63.7-54.2 9 25.3-6.8 23.6 10.6-1.8 18.1-26.2 53-26.2 53zm-37.1-4.3S253 96.6 237.9 104c-17.4 8.5-38 20-48.9 47.2-11.9 29.6-10.2 44.2-10.2 44.2s9.1-45.3 24.6-63c27.1-23 40.8-36 60.2-10.2zm47.8 4.4c27-8.5 26.8-8.5 36.5-16.3 9.8-7.8 8.8-31.1 3.3-40.5-5.8-10-22.3-20.2-22.3-20.2s10.3 8.6 15.8 13.9c9.9 9.4 13 31.5-.5 44.4a120.4 120.4 0 0 1-32.8 18.7zM175.2 71.8a59.3 59.3 0 0 0-15 20c-4.4 9.4-.2 18.6-4.9 33-5.8 17.9-22.5 29.2-22.5 29.2s15-14.8 20.4-26.9c5.5-12 .7-20 6.3-36.7 3-9 15.7-18.6 15.7-18.6zm-9.5 69.8s-11.3 23.7-23.5 34.6c-9.6 8.5-27.7 31.4-29.9 43.5-3 16.5-2.2 48.7-2.2 48.7-2.2-22.2-1.9-25.2-.1-43.8a69 69 0 0 1 14.7-33c9.4-10.6 23.4-21.1 28.9-30.9 5.5-9.7 12-19.1 12-19.1zm19.7-24.8s-20.4 48.9-28.4 59c-8 10.3-23 24.6-31.6 39.4-4.1 7-13.3 45.5-7.2 71.3 6 25.1 10.9 31 10.9 31S117.6 303.8 115 276c-2.5-26.8-1.1-52.5 16.6-74.9 17.6-22.4 21.5-23.5 32.8-44.2 11.3-20.7 21-40 21-40z"/>
  <path fill="#fff" d="M399.4 259.9s-3 45-18.8 65.7c-17.8 23.4 3.6-9.4 7.8-21.3 4.5-13 11-44.4 11-44.4zM162 316.4s-7.2 32.1-14 38.6c-6.7 6.4-10.4 4.8-13 4.5-2.7-.3 6 3.3 8.8 2.3 6-2.2 8.5-6.3 10.7-11.4 1.5-3.6 7.5-34 7.5-34zm-19-116.2c1.1 1.4-8.9 14.2-10.4 24.4-1.4 10.3-2.4 22-1.8 29.5.6 7.1-2 7.8-1.7 2.6.3-5-2.4-27.9 2.7-37.4 5-9.6 9.2-21.6 11.2-19zM277.6 54.7c-28.2-6.9-61.8 10.5-78 17.9-16.2 7.4 22.4-9.9 46.8-14 19.6-3.4 34.9-3 31.2-4z"/>
  <path fill="#ff0c72" d="M238.7 335.5c1.2-.7 1.4-.4 2.1-.8a176.7 176.7 0 0 1 7.2-7c1-1 1.6-1.4 2.8-1.8a12 12 0 0 1 4.8-.7c2.2 0 2.8 0 4.7.7a9 9 0 0 0 3.2.6c.7 0 1.1 0 1.5-.2 2.5-1 3.3-1 5.5-1 1.5 0 2.4 0 3.6.3 1.2.3 1.9.7 3.3 1.7a165.4 165.4 0 0 0 7.8 5.3c1.4 1 3.2 2.6 3.3 3 .2.3.1 1.6-.8 2.1-14.9 3.4-47.8 2.7-49-2.2zm12.7 22.8c-1.5-1-2-1.5-3.4-3.7-3-4.6-7.5-13-7.5-14.1 0-.2-2.7-6.1-1.4-4.2 29.1.8 20 4.1 32.2 2 2-.3 17.7-4.9 16.9-2.1-.1.3-.3 3.5-1.7 5.3a27.6 27.6 0 0 0-4.9 8.7c-1 2.4-2 3.5-2.7 4.3-3.9 5-4.8 6-6.6 6.8-1.3.6-2 .7-5.2.7-1.8 0-3.3.2-3.9.3-5 .6-7-.8-11.8-4z"/>
  <path fill="#da0060" d="M238.5 335.7s2-.6 3.6-2.4c1.7-1.8 8.4-1.9 13.5-.5 10.1 2.8 9.4-.6 14.7.4 2.8.6 4.3 4.4 5.1 4.7.8.3 1.3-2.1-1.8 2.6-8 11.6-25.7 0-18.3 12.4 4.2 7 15.4 4.6 19 3.2 3.5-1.4 3.6 1.1 2.4 1.8-1.2.7-5.4 5.4-10.7 5.1a40.8 40.8 0 0 1-15.6-4.5c-1.4-1.4-5.2-6.1-6.5-9l-4.4-9.9c-1-2.3-1-4-1-4z"/>
  <path d="M252.5 324.2c-3.3.1-6.3 3.1-7.7 5.3-1.1 2.2-2.8 4.4-5 5.2.3.5 1 .8 1.7-.2 1.8-2.3 4.8-4.5 6.7-6.7 2-2.3 8.2-3 12.2-1.6 1.8.7 3.6 1 4.8.4 4-1.9 9.4-1 11.1.3 4.8 3.4 7.7 4.7 11.1 7.8 1.2.8 1.4 1.4 0 2-1.7 1.2-7.5 3-14.5-.7-1.3-.7-4.8-2.3-6.7-1.4-2 1-4 1.2-6.3.4-2.6-.8-3.8.8-7.2 2.2-7.3 3.1-12.8 1.4-13.8-1.5-.1-.6-.8-1-1.6-1.1-.6-.1-1.4-2.6-1.7-3-1-1-1.2-.9-1.6.5-.5 1.7-.3 2.1 1 2 1.9-.4 3.2 5.6 6.1 12.6 4.8 11.4 9.6 13.6 13.6 15.4 1 .4 1.8 1 1.9 1.3 0 .5-.1.6-1.7 1-1.5.4-1 1.3.7 1 3.9-.4 5.5-1.2 8-1.4.3 0 15 .8 10.2-.5-3-.8-4.3-.9-3-1.2 3.7-1.1 10.2-7.3 13.3-14.2 4.3-9.8 5.6-13.5 7.9-11.7 1 .8 1-1.5.3-3.1-.6-1.4-1.9-.7-2.5 0-1.6 1.7-3.4-.6-9-4.6-7.4-5.3-8.2-5.6-13.4-4-2.9 1-5 .5-7 0-3.3-1-5.3-.7-7.9-.5zm34 14.5c2.7-.4-1.7 3.3-3.2 6.4-2.7 5.4-3 7.7-4.9 9.8-3 3.4-4.5 7.3-11.6 6.8-4.7-.3-5.6 2.8-16.5-4.3-2-1.3-9.8-15.5-9.8-16.8 0-.7-.2 0 1.7 0 1.1 0 4-1 4.6-1 4-.6 7.3-1.3 8 .4 2.9 6.2 14.2 7 16.7 1 1.4-3.3 3.4-2.5 7-2.2 5 .5 6.1.2 8-.1z" filter="url(#filter6956)"/>
  <path fill="#fff" d="M279.2 330.2c1 .5-4.5-4.7-8.9-3.9-4.4 1-1.4 1 1 1.6 2.4.8 2.9 0 7.9 2.3z"/>
  <path fill="#e5efff" d="M205.5 278.7c-4.3-.4-9-2.5-13.8-6a58.9 58.9 0 0 1-18.6-31.9c-2-9-2.8-14.5-2.5-18.2.2-2.2.5-3.3 1.2-4.9 1.8-3.6 5.6-5.8 13.1-7.5a54 54 0 0 1 12-1.6c12.1-.5 25.5 1.5 30.8 4.7a37.3 37.3 0 0 1 17.5 31.8c0 6.4-1.3 11.6-4.2 16a43.5 43.5 0 0 1-35.5 17.6zm108.7-.3c0-.2-1-.2-1.6-.3a36 36 0 0 1-12-3.4 48.6 48.6 0 0 1-13.3-13.6 31.6 31.6 0 0 1-4.3-25.8c3.8-11.3 17.6-21.8 34.6-25.6a64.3 64.3 0 0 1 29 .7c8.7 2.3 13 10 12.7 20.4-.2 4.5-1.8 8.8-3.6 14.2a87.7 87.7 0 0 1-6.5 14.7 37.3 37.3 0 0 1-31.3 18.7h-3.7z"/>
  <path fill="#c6deff" d="M281.8 233c3.2 11.4 5.8 24 14.8 32.5a23 23 0 0 0 17 8.4c7.3.8 15.5 1.6 21.7-3.3 2.8-1 10.4-7.2 11-3.8-1 4-4.3 5.6-7.6 7.2-3.9 2-7.7 4.3-11.6 6-5.9.2-11.8.8-17.6.6l-20.9-10.1c-1.6-5.3-4-10.4-5.3-15.7l-1.5-21.8zm-113.3-16.7 3.6 31.4c5 7.3 9.9 14.8 15 22 3 2.2 5.6 5.1 8.8 6.8l14.8 4c9.6-1.9-1.9-7.5-5.7-8.4a32 32 0 0 1-16.6-12.6c-5.4-6.4-5.6-15.3-8.1-23-2-7.2-1.8-15-4.5-22-2-3-5.1 4-7.3 1.8z"/>
  <path id="a" fill="none" stroke="none" stroke-linecap="butt" stroke-linejoin="miter" stroke-opacity="1" stroke-width="1.2" d="M168 243.7s15.5 4.5 42.3 5.2c28.2.8 39.6-.5 39.6-.5"/>
  <text xml:space="preserve" font-family="Marker Felt" font-size="18.7" font-weight="400" letter-spacing="0" style="line-height:.0580608px;-inkscape-font-specification:&quot;Marker Felt&quot;" word-spacing="0"><textPath xlink:href="#a"><tspan dx="0" style="-inkscape-font-specification:&quot;Marker Felt&quot;">ABOUT ME</tspan></textPath></text>
  <path id="b" fill="none" stroke="none" stroke-linecap="butt" stroke-linejoin="miter" stroke-opacity="1" stroke-width="1.2" d="M278.8 249.4s14.2 1 41.8.4c35.2-.8 42.2-3.9 42.2-3.9" display="inline"/>
  <text xml:space="preserve" font-family="Marker Felt" font-size="18.7" font-weight="400" style="line-height:.0580608px;-inkscape-font-specification:&quot;Marker Felt&quot;"><textPath xlink:href="#b">MY WORK</textPath></text>
  <path fill="#ff0c72" d="M207 284.6c-4.5-.3-8.4-1.4-10.8-2.2a90 90 0 0 1-14.5-7c-2.8-2.1-9.3-8.8-11.7-12a92 92 0 0 1-9.8-20.6 327 327 0 0 1-7.9-34c0-1 2-2.8 4.9-4.3 3.3-1.7 8-3.7 10.8-4.5a102 102 0 0 1 35.3-3c10 1.4 15.7 2.5 21.5 5.7 3.8 2.1 7 4.7 10.6 7.5 14.2 11.4 14.6 12.4 20.7 14.7a15 15 0 0 0 8.2 1c6.8-.7 12-3.2 19.1-9.4 7.1-6 14.9-11.7 18.9-13.8a69.7 69.7 0 0 1 20.7-5.5c5.2-.7 18.2-.7 22.8 0a71.6 71.6 0 0 1 24.9 8.6c3.1 2 3 1.7 1.4 7.8l-2.8 11.5c-2.8 12.7-4.5 18.1-7.6 25.3a59.8 59.8 0 0 1-14.2 21 47.4 47.4 0 0 1-40.3 12.1c-7.5-1.6-14.1-4-19.7-9.4-5.2-4.9-7.3-8.7-10.6-17.5-3.2-8.3-4.3-11.4-7.2-13.3-1.7-1.2-4.4-2.1-6.2-2.1-5.8 0-11 5.3-13 12-1.8 5.9-2.3 7.6-3.5 10.1a40.6 40.6 0 0 1-40 21.3zm118-4.8c9.6-2 18.8-8.5 24.4-16.7 2.3-3.4 6-11.5 8.8-18.9 5.3-14 7-24.3 4.9-29.8a14 14 0 0 0-6.2-6.3 37.3 37.3 0 0 0-18.3-3.3c-8.2 0-14.7.8-23.4 2.9-17.2 4.2-26.8 10.7-32.2 21.7-2.7 5.5-3.4 10-2.8 15.7 1 9.3 5.8 18.7 12 25.4a27 27 0 0 0 11.9 7c7 2.6 14.7 3.6 20.9 2.3zm-110.1 0c12.3-1.9 23-8.6 28.6-19.2 2.6-5 3.6-9 3.8-15.1.5-15.9-6.6-27-21.3-34.5-5.4-2.6-8.6-3-16.6-4a187 187 0 0 0-23.9-.4c-14.2 1.2-18.6 4-20.5 10.8a25 25 0 0 0 .5 8.6c.8 4.5 3.4 15.2 6.4 22.8a71 71 0 0 0 11.4 19 33.3 33.3 0 0 0 31.6 12zm-62-50.1a19.2 19.2 0 0 1-5.3-12.6c0-1.9.5-3.5 2.5-3.8 1.3-.2 2 .6 2.4 1.3.3.4.6 4.3 1.4 8.1.4 3.1 3.9 5.9-1 7zm217.3 0c-.2-2.8 1.6-7.8 1.9-9.5.6-3.6 1.7-5.8 2.5-6.5.8-.6 2.6.1 3.5.9 1 .8-.2 5.7-1.8 11-.8 3.8-2 6-6 4.1z"/>
  <path fill="#da0060" d="M272.6 246s-2.7-15-20.7-6c-12.5 6-4.7 11.5-8 16.8-11.8 18-27.5 26.7-42.9 22.2-11-3.2-21.1-19.9-28-32-4.5-8.1-7.3-27.6-7.3-27.6s3.6-9-5-10.6c-8.6-1.7-9.7-.3-9.7-.3l2 5-4.3-.8-2.5 3.9L151 229h4.7l7 22.2c1.3 4.2 17.5 24.4 23.4 28.4 1 .6 19.7 6.5 21.3 6.1 6.6-1.4 21.7-2.9 23-4.4 3.3-3.5 13.1-7.8 13.1-10 0-2.3 5.6-20 9.2-22.6 3.6-2.5 3-6.7 7-6.6 4.2 0 24.3 8 12.9 3.8z"/>
  <path d="M208.1 193.8c-2.3-.2-5.7.4-8.4 1.7-25-.7-38.1 4.4-48 10.4-1.1 1.2-1 3-.5 4.8 0 1-.6 1.6-1.8 1.6-2.3 0-3.2 1-3.2 6.3 0 2.5 1 5.2 1 5.2 3.7 8.4 6.3 8 8.2 7.3l2 6.2c3.8 13 9.9 26.1 18.3 34.5 7.1 7.1 9.5 9.5 24.3 13.5 6 1.6 24.1 1.3 33-4.5 7.9-5.3 10.4-8.1 13.8-14.2 2.2-4 5.4-14.5 7-17 1.7-2.8 1.8-6.3 10-6.5 8.5-.5 12 14 15.1 20.6a40 40 0 0 0 13.5 15.7 57.2 57.2 0 0 0 32.2 5.7c3-.5 14.1-4.6 16.2-5.9 9.3-6 8-6.4 15-13.6 5.8-7.3 13.2-33 14.5-34.6 3.8.9 5.8-1.3 6.2-2.7 3.3-12.7 4.5-14.8 1-17.8-.9-3.3-1-2.8-3.3-5.2-5.6-1.8-16.7-10.6-42.8-9.4-7 .3-5.5 0-8-.9-6.8-2.5-12.8-1-23 5.7l-3.1 2c-.1 0-.7.4-1.3 1-3.9 2.6-9 4.7-14.8 10 1.8 1.7 1.4 2.3-4.8 7-9.5 7.2-19.7 6.6-29.5-1.7-2-1.7-2-2-.7-5 2.7-6.5-8.4-7.6-14.8-10.2a5475.5 5475.5 0 0 0-21.3-9.5c-.5-.3-1.2-.4-2-.5zm128.7 3c4.9.2 9.7.7 13.9 1.7a56.2 56.2 0 0 1 20.8 8c1.8 1.3 2 1.8 1.4 3.6-.6 1.7-2.3 8.2-2.8 10.7a199.2 199.2 0 0 1-5 20c-.8 2.1-1.2 4.2-2.2 6.4-3 7-6.5 14.2-11 19.5-6 7-13.4 12.3-21.3 14.9a41.4 41.4 0 0 1-41.3-6.8c-6-5-9.2-10-11.8-17.4-1.3-3.4-2.5-7.2-4.4-10.2-6-9.7-18.6-6.9-23 5.3a38.3 38.3 0 0 1-14.3 23.2 44 44 0 0 1-19 8.3c-5.7.7-11.4 0-17-.7-6-1.2-10.1-4-15.2-6.6A50.2 50.2 0 0 1 167 257a98.3 98.3 0 0 1-8.5-22 1671.5 1671.5 0 0 0-4.8-20l-.8-4c-.6-2.3-.5-3 .9-4.2 1.1-1 6.3-3.8 9-4.8 7.9-4.1 26.3-5.8 37.6-4.7a57.9 57.9 0 0 1 25.6 7.5c8.8 5 14.5 11.7 23 17.2 3.5 2.1 5.8 2.7 8.7 4 3.4 1.2 10.5.5 15.5-1.9 5.5-2.2 10-6.7 13.8-10 4.6-3.8 7.7-5.8 11.8-8.7 7.2-5.6 23.2-9 38-8.6zm3.8 7.3h-4.1c-6.6.2-13.3 1.3-19 2.5-18.2 4-33.2 11.4-37.9 29.7a43.1 43.1 0 0 0 14.8 37.4 41.6 41.6 0 0 0 23.3 7.2c11.7.6 25.9-7.4 32.4-18.3 6.5-10.7 18.8-41.2 12.7-49.8-4-6.2-12.8-8.5-22.2-8.7zM194 205.6c-10.5 0-20.8 1.4-25.4 4.6-9.2 6.4-4.1 19.2.7 33.3 5.5 16.4 15.5 33.7 35.4 36.7a38 38 0 0 0 41.2-25.6c3.2-10.6 1-24.5-5.4-32.4a45 45 0 0 0-19.4-13.7c-5.7-1.9-16.6-3-27.1-3zm8.2 3.8c9.7.1 20.8 1.7 25.8 5a36.7 36.7 0 0 1 15.6 39.7c-4 15.2-25.2 25.2-38.4 23.8-14.2-1.5-26.9-19-30.4-33-6.9-27-4.7-31.1 14.4-34.7a58.7 58.7 0 0 1 13-.8zm129 0c4.7 0 9.4.6 13.8 1.8 16.3 4.5 15.9 24 4.4 46.2a36.3 36.3 0 0 1-48.4 16.9c-6-3-23.3-21-17.1-39 5.1-15 26.7-25.8 47.3-25.8zm-181 4.4c2 0 2.2 1.1 3.2 6.4 1.3 6 1.6 5.1 1.7 7.7-1 .9-1.8 1.3-4.1-1a21.1 21.1 0 0 1-2.8-8.2c-.5-3-.3-4.8 2-4.9zm224.8.5c.5 0 2 .4 2.7.6 1.4.4.4 3.7-.8 8-.3 1-.7 2.2-1.5 3.8-1.5 3.3-2.2 3.7-4.9 2.7.3-2.9.2-1.9 1.5-7.3 1-5 1.6-7.6 3-7.8z" filter="url(#filter6956)"/>
  <path fill="#fff" d="M264.5 228.4c-6-.3-9-.2-18.4-6.4-8.3-5.5-3.5-.4 1.3 2.7 3 2 6.3 3 9.1 4 3.5 1 12.5 0 8-.3zm104-20.7c2.8 1-5.5-6.5-17-7.5-11.2-1-7.5 1.3-1.3 1.9 7.5.7 9.8 2.6 18.3 5.6z"/>
  <path fill="#d4e4ff" stroke="#000" stroke-width="2" d="M188 402.2c2-1.8 5.8-4 8.3-2.3 3.6 2.4 3.3 6.2 1.4 7.8-2 1.7-5.8 4-10 1.3-3.3-2.1-1.2-5.5.3-6.8z"/>
  <path fill="#e5efff" stroke="#000" stroke-width="2.3" d="M188.8 411.8c3.1-3 9.7-4.6 13.5-1.9 5.6 4 5.1 10.4 2.2 13.1-3 2.8-8.8 6.7-15.2 2.2-5-3.6-2.7-11.3-.5-13.4z"/>
  <path fill="#e5efff" stroke="#000" stroke-width="2.6" d="M195.6 426.9c4.6-4.5 14.3-6.8 20-2.8 8.2 6 7.5 15.4 3.1 19.5-4.4 4-13 9.9-22.4 3.2-7.4-5.3-4-16.7-.7-20z"/>
  <path fill="#d4e4ff" stroke="#000" stroke-width="2" d="M343.4 409.2c2-1.8 4.2-1.2 6.7.5 3.7 2.4 4.6 6.4 2.6 8-2 1.7-4.8 2.2-9-.5-3.4-2.1-1.8-6.7-.3-8z"/>
  <path fill="#e5efff" stroke="#000" stroke-width="2.3" d="M335 420c3-3 9.6-4.5 13.4-1.8 5.6 4 5.2 10.3 2.2 13-3 2.8-8.8 6.7-15.2 2.2-5-3.5-2.7-11.2-.5-13.4z"/>
  <path fill="#e5efff" stroke="#000" stroke-width="2.6" d="M317 432.5c4.5-4.5 14.3-6.8 19.8-2.7 8.3 6 7.6 15.3 3.2 19.4-4.4 4.1-13 10-22.4 3.2-7.4-5.3-4-16.7-.6-19.9z"/>
  <path fill="#c6deff" d="M198 426.6c0 7.2.1 14.1 8.6 17.2 2.8.9 7.2 1.9 7.2 1.9-6.6 4.3-11.6 3.2-15 1.2a11.5 11.5 0 0 1-5.7-10.2c0-3 1-7.2 5-10.1zM194.7 422l3.4 1.3c-4.1 2.8-3.2 3.5-7.6 1.3a6.6 6.6 0 0 1-3.2-6.5c.2-1.8.7-5.5 5-7.3-.4 3.1-1.4 9.5 2.4 11.1zM314.8 440.3s5.9 9 10.6 9.7c5.3.9 7.8 0 10.7-2.3 3-2.2 5.8-6 5.8-6-.2 4.5-2.6 7.5-7.8 10.6-2.9 1.7-8 3.3-13.5.4-2.2-4.4-2.6-6.1-6.1-8.9.3-2 0-2.5.3-3.5zM335.1 421.7s1.4 5.9 6 8.2c4.5 1.6 6 1 9.5-.5a16 16 0 0 1-8 5c-2.6-4.2-5-6.2-9-7.5.1-2.1.5-4 1.5-5.2z"/>
  <ellipse cx="521" cy="211.5" fill="#fff" rx="2.5" ry="1.4" transform="rotate(29.8) skewX(-5.2)"/>
  <ellipse cx="645.8" cy="347.7" fill="#fff" rx="2.1" ry="1" transform="matrix(.95 .31 -.77 .63 0 0)"/>
  <ellipse cx="404" cy="237.9" fill="#fff" rx="1.9" ry="1.2" transform="rotate(33.8) skewX(2.7)"/>
  <ellipse cx="419" cy="281.6" fill="#fff" rx="1.6" ry=".8" transform="matrix(.89 .46 -.62 .79 0 0)"/>
  <path fill="#e5efff" stroke="#000" stroke-width="2.9" d="M216.9 444c5.3-5.4 16.5-8 22.9-3.3 9.5 7 8.7 18 3.7 22.8-5.1 4.8-15 11.7-25.8 3.8-8.6-6.2-4.6-19.6-.8-23.4z"/>
  <path fill="#c6deff" d="M217.9 445c2 9.2 2 16 13.7 17.8 3.9.6 9 1.1 9 1.1-6.3 5.7-11.7 6.3-16.3 5-3.3-.8-9.1-3.6-10.5-9.7-.8-3.3-.3-10.2 4-14.2z"/>
  <ellipse cx="443.9" cy="260" fill="#fff" rx="2.9" ry="1.7" transform="rotate(31) skewX(-2.9)"/>
  <path fill="#c6deff" d="M231 455.7c-.5.4-.5 1.3 0 1.8.3.2.6.2.9 0 .2-.3.3-.6.3-1 0-.3 0-.6-.3-.8a.6.6 0 0 0-1 0zm-3.8 0c-.2.2-.3.5-.3.8 0 .4 0 .7.3 1 .3.2.6.2 1 0 .3-.5.3-1.4 0-1.8a.6.6 0 0 0-1 0zm7-3c0-.9-.1-1.7-.4-2.5 0 0 0-.1-.2 0l-.7.1-1.8 1h-.2c-.9-.2-1.8-.2-2.7 0h-.3c-.7-.5-1.3-1-2-1.1-.7-.2-.6-.2-.7.4-.3.6-.3 1.3-.3 2v.2l-.7 1.1c-.2.8-.2 1.6 0 2.4a3.5 3.5 0 0 0 2.9 2.9l2.4.2c.8 0 1.6 0 2.3-.2 1.3-.2 2.3-.9 2.8-2.2l.4-1.4c0-1 0-2-.8-2.8v-.1zm-.7 4.4c-.2.7-.5 1.1-1.2 1.3-.6.3-1.2.4-1.8.4h-1a8 8 0 0 1-2.5-.3c-1-.3-1.4-.9-1.5-2 0-.3 0-.7.2-1 .4-.7 1-1 1.7-1l1.2.1h3.5c.9.1 1.4.9 1.5 1.8l-.1.7z"/>
  <path fill="#e5efff" stroke="#000" stroke-width="2.9" d="M291 447.4c5-5.1 15.7-7.7 21.8-3.1 9 6.7 8.4 17.4 3.5 22-4.8 4.7-14.2 11.3-24.6 3.7-8.2-6-4.3-19-.7-22.6z"/>
  <path fill="#c6deff" d="M288.9 455.6s2.5 7.7 6.5 10.3c4.5 2.9 9.4 1.6 13 .7 3.6-.9 8.8-3.8 8.8-3.8-5 6.6-9.4 9-14.6 9.2-3.3.2-8.7-1-12.6-5.7.6-3 .4-5.2-1.1-10.7z"/>
  <ellipse cx="497.4" cy="203.8" fill="#fff" rx="2.3" ry="1.4" transform="rotate(33.4) skewX(1.9)"/>
  <path fill="#c6deff" d="m298.7 458.6 1 1.5c.1.4.5.6.9.6h5.9l-1.2-2.1zm10.6 0c0-.2 0-.4-.2-.6l-3.5-6a1 1 0 0 0-.9-.6H303l5.3 9.3.9-1.5.2-.6zm-5-1.5-2.3-4.2-2.4 4.2z"/>
  <path fill="#e5efff" stroke="#000" stroke-width="3.2" d="M268.6 443.3c9.5 1 20.5 9.7 20.1 19.8-.5 14.8-12.8 22.9-21.6 21.7-8.9-1-23.3-5.3-22.8-22.1.4-13.3 17.6-20 24.3-19.4z"/>
  <path fill="#c6deff" d="M248.9 454.8s1.8 9.4 5.3 15c4 6.5 11.2 7 16.3 7.5 5.4.5 12.8-2.4 12.8-2.4-7.6 9.9-15.5 9.2-22.5 7-4.5-1.3-12-4.8-13.8-11.9a17.1 17.1 0 0 1 1.9-15.2z"/>
  <ellipse cx="462.6" cy="212.9" fill="#fff" rx="3.9" ry="2.4" transform="rotate(35.1) skewX(5.2)"/>
  <path fill="#c6deff" d="M270.3 461c-1.5 0-2.4.8-2.5 1.4v-1.3h-2.9v8.2h2.9V464.2c.2-.5.6-1 1.4-1 1 0 1.4.8 1.4 1.9v4.2h3v-4.6c0-2.5-1.5-3.6-3.3-3.6zm-8.3-3.7c-.9 0-1.5.6-1.5 1.4 0 .8.6 1.4 1.5 1.4 1 0 1.6-.6 1.6-1.4 0-.8-.6-1.4-1.6-1.4zm-1.2 3.8h2.6v8.2h-2.6z"/>
</svg>
